<svg width="20" height="20" viewBox="0 0 20 20" fill="none" xmlns="http://www.w3.org/2000/svg">
<path fill-rule="evenodd" clip-rule="evenodd" d="M2.46676 9.99948C2.46676 6.21948 5.41342 2.46615 10.0001 2.46615C13.7041 2.46615 15.5361 5.20748 16.3161 6.66615H14.0001C13.8233 6.66615 13.6537 6.73638 13.5287 6.86141C13.4037 6.98643 13.3334 7.156 13.3334 7.33281C13.3334 7.50962 13.4037 7.67919 13.5287 7.80422C13.6537 7.92924 13.8233 7.99948 14.0001 7.99948H18.0001C18.1769 7.99948 18.3465 7.92924 18.4715 7.80422C18.5965 7.67919 18.6668 7.50962 18.6668 7.33281V3.33281C18.6668 3.156 18.5965 2.98643 18.4715 2.86141C18.3465 2.73638 18.1769 2.66615 18.0001 2.66615C17.8233 2.66615 17.6537 2.73638 17.5287 2.86141C17.4037 2.98643 17.3334 3.156 17.3334 3.33281V5.75015C16.3948 4.09415 14.2214 1.13281 10.0001 1.13281C4.58276 1.13281 1.13342 5.57948 1.13342 9.99948C1.13342 14.4195 4.58276 18.8661 10.0001 18.8661C12.5921 18.8661 14.7494 17.8395 16.2854 16.2768C17.1005 15.4455 17.747 14.4644 18.1894 13.3875C18.2227 13.3065 18.2397 13.2198 18.2394 13.1322C18.2392 13.0447 18.2217 12.958 18.1879 12.8772C18.1542 12.7964 18.1049 12.7231 18.0428 12.6614C17.9807 12.5996 17.9071 12.5507 17.8261 12.5175C17.7451 12.4842 17.6584 12.4672 17.5708 12.4675C17.4833 12.4677 17.3966 12.4852 17.3158 12.519C17.2351 12.5527 17.1617 12.602 17.1 12.6641C17.0383 12.7262 16.9894 12.7998 16.9561 12.8808C16.5793 13.7981 16.0288 14.6339 15.3348 15.3421C14.0401 16.6621 12.2201 17.5328 10.0001 17.5328C5.41342 17.5328 2.46676 13.7795 2.46676 9.99948Z" fill="black"/>
</svg>
